<mxfile host="app.diagrams.net" modified="2023-05-31T14:01:01.998Z" agent="Mozilla/5.0 (Macintosh; Intel Mac OS X 10_15_7) AppleWebKit/537.36 (KHTML, like Gecko) Chrome/113.0.0.0 Safari/537.36" etag="kldXTWbtFILs3WkSGtf0" version="21.1.2" type="github">
  <diagram name="第 1 页" id="LiWSNEPUO5WJ6QiC8WSy">
    <mxGraphModel dx="1104" dy="885" grid="1" gridSize="10" guides="1" tooltips="1" connect="1" arrows="1" fold="1" page="1" pageScale="1" pageWidth="827" pageHeight="1169" math="0" shadow="0">
      <root>
        <mxCell id="0" />
        <mxCell id="1" parent="0" />
        <mxCell id="wdMIZmHngz05BS1G7m5j-3" value="" style="edgeStyle=orthogonalEdgeStyle;rounded=0;orthogonalLoop=1;jettySize=auto;html=1;" edge="1" parent="1" source="wdMIZmHngz05BS1G7m5j-1" target="wdMIZmHngz05BS1G7m5j-4">
          <mxGeometry relative="1" as="geometry">
            <mxPoint x="414.5" y="230" as="targetPoint" />
          </mxGeometry>
        </mxCell>
        <mxCell id="wdMIZmHngz05BS1G7m5j-1" value="&lt;font style=&quot;font-size: 14px;&quot;&gt;获取接口信息&lt;/font&gt;" style="rounded=0;whiteSpace=wrap;html=1;fillColor=#f8cecc;strokeColor=#b85450;" vertex="1" parent="1">
          <mxGeometry x="329" y="120" width="170" height="70" as="geometry" />
        </mxCell>
        <mxCell id="wdMIZmHngz05BS1G7m5j-7" style="edgeStyle=orthogonalEdgeStyle;rounded=0;orthogonalLoop=1;jettySize=auto;html=1;" edge="1" parent="1" source="wdMIZmHngz05BS1G7m5j-4" target="wdMIZmHngz05BS1G7m5j-5">
          <mxGeometry relative="1" as="geometry" />
        </mxCell>
        <mxCell id="wdMIZmHngz05BS1G7m5j-4" value="&lt;span style=&quot;font-size: 14px;&quot;&gt;解析请求参数&lt;/span&gt;" style="rounded=0;whiteSpace=wrap;html=1;fillColor=#d5e8d4;strokeColor=#82b366;" vertex="1" parent="1">
          <mxGeometry x="329" y="240" width="170" height="70" as="geometry" />
        </mxCell>
        <mxCell id="wdMIZmHngz05BS1G7m5j-8" style="edgeStyle=orthogonalEdgeStyle;rounded=0;orthogonalLoop=1;jettySize=auto;html=1;entryX=0.5;entryY=0;entryDx=0;entryDy=0;" edge="1" parent="1" source="wdMIZmHngz05BS1G7m5j-5" target="wdMIZmHngz05BS1G7m5j-6">
          <mxGeometry relative="1" as="geometry" />
        </mxCell>
        <mxCell id="wdMIZmHngz05BS1G7m5j-5" value="&lt;span style=&quot;font-size: 14px;&quot;&gt;生成请求报文&lt;/span&gt;" style="rounded=0;whiteSpace=wrap;html=1;fillColor=#e1d5e7;strokeColor=#9673a6;" vertex="1" parent="1">
          <mxGeometry x="329" y="360" width="170" height="70" as="geometry" />
        </mxCell>
        <mxCell id="wdMIZmHngz05BS1G7m5j-6" value="&lt;span style=&quot;font-size: 14px;&quot;&gt;输出请求报文&lt;/span&gt;" style="rounded=0;whiteSpace=wrap;html=1;fillColor=#ffe6cc;strokeColor=#d79b00;" vertex="1" parent="1">
          <mxGeometry x="329" y="480" width="170" height="70" as="geometry" />
        </mxCell>
      </root>
    </mxGraphModel>
  </diagram>
</mxfile>
